HIERARCHY
ROOT Hips
{
	OFFSET 0.000000 103.266502 0.000000
	CHANNELS 6 Xposition Yposition Zposition Xrotation Yrotation Zrotation 
	JOINT Spine
	{
		OFFSET -0.002400 12.777504 0.315300
		CHANNELS 3 Xrotation Yrotation Zrotation
		JOINT Spine1
		{
			OFFSET -0.002067 5.816869 0.032633
			CHANNELS 3 Xrotation Yrotation Zrotation
			JOINT Spine1_split
			{
				OFFSET -0.002067 5.816869 0.032633
				CHANNELS 3 Xrotation Yrotation Zrotation
				JOINT Spine2
				{
					OFFSET -0.002067 5.816869 0.032633
					CHANNELS 3 Xrotation Yrotation Zrotation
					JOINT Neck
					{
						OFFSET -0.003700 21.199493 -0.826900
						CHANNELS 3 Xrotation Yrotation Zrotation
						JOINT Head
						{
							OFFSET 0.000000 20.442200 4.834800
							CHANNELS 3 Xrotation Yrotation Zrotation
							JOINT HeadTop_End
							{
								OFFSET 0.000000 34.668396 4.968400
								CHANNELS 3 Xrotation Yrotation Zrotation
								End Site
								{
									OFFSET 0.000000 0.000000 0.000000
								}
							}
						}
					}
					JOINT LeftShoulder
					{
						OFFSET 3.288150 8.794197 -1.372250
						CHANNELS 3 Xrotation Yrotation Zrotation
						JOINT LeftShoulder_split
						{
							OFFSET 3.288150 8.794197 -1.372250
							CHANNELS 3 Xrotation Yrotation Zrotation
							JOINT LeftArm
							{
								OFFSET 11.953299 -2.279007 -0.146200
								CHANNELS 3 Xrotation Yrotation Zrotation
								JOINT LeftForeArm
								{
									OFFSET 18.448900 0.000000 0.000000
									CHANNELS 3 Xrotation Yrotation Zrotation
									JOINT LeftHand
									{
										OFFSET 29.527798 0.000000 0.000000
										CHANNELS 3 Xrotation Yrotation Zrotation
										JOINT LeftHandThumb1
										{
											OFFSET 10.739754 -2.369614 9.225399
											CHANNELS 3 Xrotation Yrotation Zrotation
											JOINT LeftHandThumb2
											{
												OFFSET 4.926170 -2.844131 2.844125
												CHANNELS 3 Xrotation Yrotation Zrotation
												JOINT LeftHandThumb3
												{
													OFFSET 4.614891 -2.664413 2.664409
													CHANNELS 3 Xrotation Yrotation Zrotation
													JOINT LeftHandThumb4
													{
														OFFSET 4.432465 -2.559082 2.559083
														CHANNELS 3 Xrotation Yrotation Zrotation
														End Site
														{
															OFFSET 0.000000 0.000000 0.000000
														}
													}
												}
											}
										}
										JOINT LeftHandIndex1
										{
											OFFSET 26.467674 0.187653 6.405298
											CHANNELS 3 Xrotation Yrotation Zrotation
											JOINT LeftHandIndex2
											{
												OFFSET 8.792900 0.000000 0.000000
												CHANNELS 3 Xrotation Yrotation Zrotation
												JOINT LeftHandIndex3
												{
													OFFSET 10.075203 0.000000 0.000000
													CHANNELS 3 Xrotation Yrotation Zrotation
													End Site
													{
														OFFSET 0.000000 0.000000 0.000000
													}
												}
											}
										}
										JOINT LeftHandMiddle1
										{
											OFFSET 25.764404 0.000000 0.000000
											CHANNELS 3 Xrotation Yrotation Zrotation
											JOINT LeftHandMiddle2
											{
												OFFSET 9.393974 0.000000 0.000000
												CHANNELS 3 Xrotation Yrotation Zrotation
												JOINT LeftHandMiddle3
												{
													OFFSET 10.771950 0.000000 0.000000
													CHANNELS 3 Xrotation Yrotation Zrotation
													End Site
													{
														OFFSET 0.000000 0.000000 0.000000
													}
												}
											}
										}
										JOINT LeftHandRing1
										{
											OFFSET 24.660927 0.144547 -6.225808
											CHANNELS 3 Xrotation Yrotation Zrotation
											JOINT LeftHandRing2
											{
												OFFSET 9.393799 0.000000 0.000000
												CHANNELS 3 Xrotation Yrotation Zrotation
												JOINT LeftHandRing3
												{
													OFFSET 9.928497 0.000000 0.000000
													CHANNELS 3 Xrotation Yrotation Zrotation
													End Site
													{
														OFFSET 0.000000 0.000000 0.000000
													}
												}
											}
										}
										JOINT LeftHandPinky1
										{
											OFFSET 23.655350 0.125290 -12.815412
											CHANNELS 3 Xrotation Yrotation Zrotation
											JOINT LeftHandPinky2
											{
												OFFSET 8.425102 0.000000 0.000000
												CHANNELS 3 Xrotation Yrotation Zrotation
												JOINT LeftHandPinky3
												{
													OFFSET 8.147003 0.000000 0.000000
													CHANNELS 3 Xrotation Yrotation Zrotation
													End Site
													{
														OFFSET 0.000000 0.000000 0.000000
													}
												}
											}
										}
									}
								}
							}
						}
					}
					JOINT RightShoulder
					{
						OFFSET -3.249400 8.794197 -1.372250
						CHANNELS 3 Xrotation Yrotation Zrotation
						JOINT RightShoulder_split
						{
							OFFSET -3.249400 8.794197 -1.372250
							CHANNELS 3 Xrotation Yrotation Zrotation
							JOINT RightArm
							{
								OFFSET -11.953299 -2.279007 -0.146200
								CHANNELS 3 Xrotation Yrotation Zrotation
								JOINT RightForeArm
								{
									OFFSET -18.448900 0.000000 0.000000
									CHANNELS 3 Xrotation Yrotation Zrotation
									JOINT RightHand
									{
										OFFSET -29.527802 0.000000 0.000000
										CHANNELS 3 Xrotation Yrotation Zrotation
										JOINT RightHandThumb1
										{
											OFFSET -10.739754 -2.369614 9.225399
											CHANNELS 3 Xrotation Yrotation Zrotation
											JOINT RightHandThumb2
											{
												OFFSET -4.926170 -2.844131 2.844125
												CHANNELS 3 Xrotation Yrotation Zrotation
												JOINT RightHandThumb3
												{
													OFFSET -4.614891 -2.664413 2.664409
													CHANNELS 3 Xrotation Yrotation Zrotation
													JOINT RightHandThumb4
													{
														OFFSET -4.432465 -2.559082 2.559083
														CHANNELS 3 Xrotation Yrotation Zrotation
														End Site
														{
															OFFSET 0.000000 0.000000 0.000000
														}
													}
												}
											}
										}
										JOINT RightHandIndex1
										{
											OFFSET -26.467674 0.187653 6.405298
											CHANNELS 3 Xrotation Yrotation Zrotation
											JOINT RightHandIndex2
											{
												OFFSET -8.792900 0.000000 0.000000
												CHANNELS 3 Xrotation Yrotation Zrotation
												JOINT RightHandIndex3
												{
													OFFSET -10.075203 0.000000 0.000000
													CHANNELS 3 Xrotation Yrotation Zrotation
													End Site
													{
														OFFSET 0.000000 0.000000 0.000000
													}
												}
											}
										}
										JOINT RightHandMiddle1
										{
											OFFSET -25.764404 0.000000 0.000000
											CHANNELS 3 Xrotation Yrotation Zrotation
											JOINT RightHandMiddle2
											{
												OFFSET -9.393974 0.000000 0.000000
												CHANNELS 3 Xrotation Yrotation Zrotation
												JOINT RightHandMiddle3
												{
													OFFSET -10.771950 0.000000 0.000000
													CHANNELS 3 Xrotation Yrotation Zrotation
													End Site
													{
														OFFSET 0.000000 0.000000 0.000000
													}
												}
											}
										}
										JOINT RightHandRing1
										{
											OFFSET -24.660927 0.144547 -6.225808
											CHANNELS 3 Xrotation Yrotation Zrotation
											JOINT RightHandRing2
											{
												OFFSET -9.393799 0.000000 0.000000
												CHANNELS 3 Xrotation Yrotation Zrotation
												JOINT RightHandRing3
												{
													OFFSET -9.928497 0.000000 0.000000
													CHANNELS 3 Xrotation Yrotation Zrotation
													End Site
													{
														OFFSET 0.000000 0.000000 0.000000
													}
												}
											}
										}
										JOINT RightHandPinky1
										{
											OFFSET -23.655350 0.125290 -12.815412
											CHANNELS 3 Xrotation Yrotation Zrotation
											JOINT RightHandPinky2
											{
												OFFSET -8.425102 0.000000 0.000000
												CHANNELS 3 Xrotation Yrotation Zrotation
												JOINT RightHandPinky3
												{
													OFFSET -8.147003 0.000000 0.000000
													CHANNELS 3 Xrotation Yrotation Zrotation
													End Site
													{
														OFFSET 0.000000 0.000000 0.000000
													}
												}
											}
										}
									}
								}
							}
						}
					}
				}
			}
		}
	}
	JOINT LeftUpLeg
	{
		OFFSET 11.394100 -6.187798 -0.413800
		CHANNELS 3 Xrotation Yrotation Zrotation
		JOINT LeftLeg
		{
			OFFSET 0.430247 -32.302673 3.732800
			CHANNELS 3 Xrotation Yrotation Zrotation
			JOINT LeftFoot
			{
				OFFSET -0.430247 -48.264931 -6.423300
				CHANNELS 3 Xrotation Yrotation Zrotation
				JOINT LeftToeBase
				{
					OFFSET 4.230900 -16.068199 23.438400
					CHANNELS 3 Xrotation Yrotation Zrotation
					JOINT LeftToe_End
					{
						OFFSET 4.510700 0.695400 19.974600
						CHANNELS 3 Xrotation Yrotation Zrotation
						End Site
						{
							OFFSET 0.000000 0.000000 0.000000
						}
					}
				}
			}
		}
	}
	JOINT RightUpLeg
	{
		OFFSET -11.333700 -6.187798 -0.413800
		CHANNELS 3 Xrotation Yrotation Zrotation
		JOINT RightLeg
		{
			OFFSET -0.430392 -32.302628 3.733000
			CHANNELS 3 Xrotation Yrotation Zrotation
			JOINT RightFoot
			{
				OFFSET 0.430392 -48.264973 -6.423500
				CHANNELS 3 Xrotation Yrotation Zrotation
				JOINT RightToeBase
				{
					OFFSET -4.230900 -16.068199 23.438400
					CHANNELS 3 Xrotation Yrotation Zrotation
					JOINT RightToe_End
					{
						OFFSET -4.510700 0.695400 19.974600
						CHANNELS 3 Xrotation Yrotation Zrotation
						End Site
						{
							OFFSET 0.000000 0.000000 0.000000
						}
					}
				}
			}
		}
	}
}
MOTION
Frames: 4
Frame Time: 0.016667
-1.354745 88.840401 11.340238 3.872744 -66.310721 1.326254 8.002207 -7.956285 7.338732 -0.190738 -11.250294 6.028639 0.000000 0.000000 0.000000 -11.447047 -11.562242 5.338308 3.252603 40.080308 6.930930 20.046154 25.136469 -4.753812 0.000000 0.000003 -0.000001 7.036025 -21.717433 28.304178 0.000000 0.000000 0.000000 -17.434025 -22.035035 -5.063779 -0.024461 -18.120272 -4.741177 -3.552987 -6.370910 13.626879 42.313053 -18.874758 16.581734 -1.124725 11.542626 -8.102174 13.619886 23.384775 -3.936920 0.000001 -0.000001 -0.000000 -2.169680 -7.707829 -52.286444 -1.077020 -2.178634 -57.035823 0.000000 0.000001 0.000000 0.593495 2.455628 -56.484404 -1.132150 -2.997380 -65.080228 0.000000 0.000003 0.000001 1.303221 5.891421 -65.858241 -2.589228 -2.454417 -70.907985 -0.000001 -0.000000 -0.000000 0.029063 4.541958 -74.162392 -2.684745 -2.230685 -68.744652 0.000002 -0.000000 0.000002 0.930708 -15.187711 4.991297 0.000000 0.000000 0.000000 -54.595225 -4.695019 -21.803106 -1.943031 39.705454 7.057021 -51.183460 -15.861549 -14.387252 55.149536 18.649541 -29.698270 -0.442553 -14.180525 7.313151 21.666986 -29.244497 9.142375 0.000001 -0.000003 -0.000002 5.673375 7.585027 36.844158 1.050449 3.824482 68.900271 -0.000000 0.000000 0.000000 -0.125696 1.886086 45.000766 -1.169014 3.204696 68.417684 -0.000000 0.000000 0.000000 -5.312004 1.216628 58.508821 -0.745198 1.667579 48.011251 -0.000001 0.000000 0.000001 -7.756786 -9.376457 47.264004 -0.526066 1.541590 45.600508 0.000002 -0.000001 0.000003 -36.067545 42.764344 45.459960 59.875494 9.275712 -4.718290 -29.513968 6.567285 5.197408 -1.803478 3.939505 -9.476671 0.000000 -0.000000 0.000001 -19.727014 3.204083 -27.814808 29.650937 2.631413 -0.168786 -13.356477 -1.339384 27.204609 1.601740 -2.595652 4.658262 -0.000000 0.000001 0.000000 
-2.046516 89.210762 11.990892 0.148423 -63.460804 -1.858694 7.715151 -7.962418 7.225637 -0.769985 -11.249929 5.778993 0.000000 0.000000 0.000000 -12.026592 -11.514017 5.093314 5.352065 37.304745 7.154962 18.938298 24.498251 -3.642624 -0.000000 -0.000000 -0.000000 7.857579 -21.919595 30.974464 0.000000 0.000000 0.000000 -21.326279 -25.568321 -2.826546 -0.025383 -17.497932 -4.137774 -2.765589 -6.958306 14.864491 42.927582 -18.897843 16.453180 -0.945137 11.655994 -8.273431 14.060081 23.951409 -4.258791 0.000001 0.000000 -0.000000 -2.215081 -7.742167 -53.603885 -1.119906 -2.204950 -58.146118 0.000000 0.000001 0.000000 0.537335 2.419235 -57.792751 -1.191429 -3.024539 -66.361148 0.000000 0.000001 -0.000001 1.239041 5.863653 -67.162254 -2.655537 -2.476366 -72.221355 0.000001 0.000000 -0.000000 -0.038015 4.523869 -75.467641 -2.752223 -2.255884 -70.057715 -0.000001 0.000000 0.000002 0.146580 -15.459962 2.713259 0.000000 0.000000 0.000000 -57.506115 -5.072660 -23.534923 -0.738062 40.895133 7.076504 -50.027335 -13.816071 -14.796350 55.149536 18.649540 -29.698270 -0.442556 -14.180526 7.313143 21.666992 -29.244500 9.142383 0.000002 0.000002 0.000000 5.673376 7.585028 36.844158 1.050449 3.824483 68.900271 0.000001 -0.000000 0.000000 -0.125696 1.886087 45.000773 -1.169014 3.204698 68.417684 -0.000000 0.000000 0.000000 -5.312005 1.216629 58.508814 -0.745199 1.667579 48.011254 0.000001 -0.000000 0.000001 -7.756787 -9.376457 47.264001 -0.526065 1.541588 45.600508 0.000000 -0.000002 0.000003 -33.137820 42.412869 43.981992 58.509648 8.142344 -4.449933 -29.264878 6.516455 5.499925 -1.326757 4.280856 -9.756330 -0.000000 0.000000 0.000001 -16.111407 3.284678 -28.384745 31.015271 0.673708 0.881439 -15.503486 -2.729675 24.719208 1.604889 -3.250315 5.258800 -0.000000 0.000001 -0.000000 
-2.713075 89.640221 12.765434 -2.790017 -60.379282 -3.956819 7.341298 -7.948888 7.005436 -1.527754 -11.209408 5.298613 0.000000 0.000000 0.000000 -12.782774 -11.382093 4.629936 8.338204 34.560361 6.887033 17.862386 23.738211 -2.470270 0.000001 0.000002 -0.000000 8.584866 -21.755788 33.610159 0.000000 0.000000 0.000000 -27.651770 -28.364618 -2.405157 -0.026664 -18.419767 -2.358935 -5.291957 -5.926813 14.285834 43.353997 -18.915832 16.360963 -0.820389 11.735196 -8.393316 14.368869 24.345648 -4.486619 -0.000000 -0.000000 0.000001 -2.247302 -7.764467 -54.521992 -1.150274 -2.222071 -58.919930 -0.000000 0.000001 -0.000002 0.497580 2.394599 -58.704465 -1.233047 -3.040910 -67.253792 0.000000 0.000001 -0.000001 1.193971 5.845132 -68.070908 -2.702010 -2.490729 -73.136532 0.000000 0.000000 0.000000 -0.085031 4.512106 -76.377218 -2.799533 -2.272590 -70.972714 0.000001 -0.000001 -0.000001 -0.667858 -15.637513 0.241171 0.000000 0.000000 0.000000 -60.363545 -5.259270 -25.202679 0.541711 42.083196 7.030216 -48.692856 -11.716997 -15.338715 55.149539 18.649543 -29.698270 -0.442554 -14.180530 7.313148 21.666991 -29.244500 9.142374 -0.000002 -0.000002 -0.000003 5.673377 7.585028 36.844158 1.050450 3.824480 68.900271 -0.000002 -0.000000 0.000000 -0.125697 1.886087 45.000773 -1.169015 3.204694 68.417684 -0.000001 -0.000000 0.000000 -5.312004 1.216627 58.508821 -0.745196 1.667580 48.011251 0.000001 -0.000000 0.000000 -7.756786 -9.376460 47.264001 -0.526065 1.541589 45.600515 -0.000001 0.000000 0.000002 -29.707020 42.462022 42.347617 56.599578 6.701812 -4.522331 -28.790480 6.699278 5.222855 -0.812993 4.650539 -10.063393 -0.000000 -0.000001 -0.000000 -12.121002 3.254459 -29.523209 31.939409 -1.834786 2.797378 -16.528557 -4.430055 21.969167 0.868985 -3.764542 5.595892 0.000000 -0.000000 0.000000 
-3.316793 90.103088 13.863563 -4.337526 -57.368835 -4.736779 6.845431 -7.931701 6.738252 -2.535068 -11.161993 4.689577 0.000000 0.000000 0.000000 -13.787174 -11.218751 4.041875 11.602459 31.881103 6.465380 17.424402 22.943898 -1.329565 0.000001 -0.000000 0.000001 8.478568 -20.502862 36.126260 0.000000 0.000000 0.000000 -34.534772 -32.188424 -4.145010 -0.027677 -17.857398 -0.308371 -9.297701 -5.515036 15.170707 43.570596 -18.924882 16.312483 -0.757235 11.775689 -8.454603 14.526726 24.546192 -4.603835 0.000001 0.000002 -0.000001 -2.263434 -7.775081 -54.989546 -1.165428 -2.230482 -59.314073 -0.000000 -0.000000 -0.000002 0.478518 2.383207 -59.168925 -1.253573 -3.047947 -67.708458 0.000001 0.000001 -0.000001 1.171032 5.836713 -68.533695 -2.726091 -2.497395 -73.602802 -0.000000 0.000001 0.000000 -0.109021 4.506861 -76.840461 -2.824285 -2.279926 -71.438840 -0.000000 -0.000001 -0.000000 -1.505390 -15.764133 -2.396704 0.000000 0.000000 0.000000 -63.043370 -5.187526 -26.544798 1.665736 43.271864 6.930285 -47.203174 -9.686941 -15.881250 55.149536 18.649541 -29.698274 -0.442552 -14.180521 7.313150 21.666989 -29.244497 9.142378 -0.000002 -0.000001 -0.000001 5.673376 7.585028 36.844158 1.050449 3.824482 68.900271 0.000002 0.000000 -0.000001 -0.125695 1.886087 45.000766 -1.169016 3.204700 68.417691 -0.000002 0.000002 0.000000 -5.312004 1.216630 58.508814 -0.745197 1.667581 48.011251 -0.000003 0.000003 -0.000000 -7.756785 -9.376458 47.264001 -0.526065 1.541590 45.600511 -0.000001 -0.000001 0.000003 -26.038650 42.911114 40.482518 54.021281 5.257240 -4.796745 -28.271449 7.014716 4.078763 -0.265178 4.748677 -10.098268 -0.000000 0.000001 0.000001 -8.233972 2.927478 -31.157083 32.053152 -4.575209 5.685866 -15.712184 -5.904571 18.573600 -0.263984 -4.564338 6.099503 0.000000 -0.000000 -0.000000 
